<?xml version="1.0" encoding="utf-8"?>
<!-- Generator: Adobe Illustrator 24.1.2, SVG Export Plug-In . SVG Version: 6.00 Build 0)  -->
<svg version="1.0" id="Layer_1" xmlns="http://www.w3.org/2000/svg" xmlns:xlink="http://www.w3.org/1999/xlink" x="0px" y="0px"
	 viewBox="0 0 381 307" style="enable-background:new 0 0 381 307;" xml:space="preserve">
<style type="text/css">
	.st0{clip-path:url(#SVGID_2_);fill:#FFFFFF;}
	.st1{fill:#FFFFFF;}
	.st2{opacity:0.149;fill:none;stroke:#262626;stroke-width:0.5;stroke-linejoin:round;stroke-miterlimit:10;}
	.st3{fill:none;stroke:#262626;stroke-width:0.5;stroke-linecap:square;stroke-linejoin:round;stroke-miterlimit:10;}
	.st4{fill:#262626;}
	.st5{font-family:'ArialMT';}
	.st6{font-size:9px;}
	.st7{font-size:9.9px;}
	.st8{font-family:'Arial-BoldMT';}
	.st9{fill:none;stroke:#0072BD;stroke-width:1.5;stroke-linejoin:round;stroke-miterlimit:10;}
	.st10{fill:none;stroke:#D95319;stroke-width:1.5;stroke-linejoin:round;stroke-miterlimit:10;}
	.st11{fill:none;stroke:#D95319;stroke-width:0.5;stroke-linejoin:round;stroke-miterlimit:10;}
	.st12{opacity:0.2;fill:#D95319;}
	.st13{font-size:8.1px;}
	.st14{fill:none;stroke:#262626;stroke-width:0.5;stroke-miterlimit:10;}
</style>
<g>
	<defs>
		<rect id="SVGID_1_" x="-32.36" y="-0.56" width="420" height="315"/>
	</defs>
	<clipPath id="SVGID_2_">
		<use xlink:href="#SVGID_1_"  style="overflow:visible;"/>
	</clipPath>
	<rect x="-32.36" y="-0.56" class="st0" width="420" height="315"/>
</g>
<rect x="-32.36" y="-0.56" class="st1" width="420" height="315"/>
<rect x="22.39" y="23.44" class="st1" width="325.5" height="105.75"/>
<line class="st2" x1="22.39" y1="129.19" x2="22.39" y2="23.44"/>
<line class="st2" x1="54.94" y1="129.19" x2="54.94" y2="23.44"/>
<line class="st2" x1="87.49" y1="129.19" x2="87.49" y2="23.44"/>
<line class="st2" x1="120.04" y1="129.19" x2="120.04" y2="23.44"/>
<line class="st2" x1="152.59" y1="129.19" x2="152.59" y2="23.44"/>
<line class="st2" x1="185.14" y1="129.19" x2="185.14" y2="23.44"/>
<line class="st2" x1="217.69" y1="129.19" x2="217.69" y2="23.44"/>
<line class="st2" x1="250.24" y1="129.19" x2="250.24" y2="23.44"/>
<line class="st2" x1="282.79" y1="129.19" x2="282.79" y2="23.44"/>
<line class="st2" x1="315.34" y1="129.19" x2="315.34" y2="23.44"/>
<line class="st2" x1="347.89" y1="129.19" x2="347.89" y2="23.44"/>
<line class="st2" x1="347.89" y1="129.19" x2="22.39" y2="129.19"/>
<line class="st2" x1="347.89" y1="107.17" x2="22.39" y2="107.17"/>
<line class="st2" x1="347.89" y1="85.15" x2="22.39" y2="85.15"/>
<line class="st2" x1="347.89" y1="63.12" x2="22.39" y2="63.12"/>
<line class="st2" x1="347.89" y1="41.1" x2="22.39" y2="41.1"/>
<line class="st3" x1="22.39" y1="129.19" x2="347.89" y2="129.19"/>
<line class="st3" x1="22.39" y1="23.44" x2="347.89" y2="23.44"/>
<line class="st3" x1="22.39" y1="129.19" x2="22.39" y2="125.94"/>
<line class="st3" x1="54.94" y1="129.19" x2="54.94" y2="125.94"/>
<line class="st3" x1="87.49" y1="129.19" x2="87.49" y2="125.94"/>
<line class="st3" x1="120.04" y1="129.19" x2="120.04" y2="125.94"/>
<line class="st3" x1="152.59" y1="129.19" x2="152.59" y2="125.94"/>
<line class="st3" x1="185.14" y1="129.19" x2="185.14" y2="125.94"/>
<line class="st3" x1="217.69" y1="129.19" x2="217.69" y2="125.94"/>
<line class="st3" x1="250.24" y1="129.19" x2="250.24" y2="125.94"/>
<line class="st3" x1="282.79" y1="129.19" x2="282.79" y2="125.94"/>
<line class="st3" x1="315.34" y1="129.19" x2="315.34" y2="125.94"/>
<line class="st3" x1="347.89" y1="129.19" x2="347.89" y2="125.94"/>
<line class="st3" x1="22.39" y1="23.44" x2="22.39" y2="26.7"/>
<line class="st3" x1="54.94" y1="23.44" x2="54.94" y2="26.7"/>
<line class="st3" x1="87.49" y1="23.44" x2="87.49" y2="26.7"/>
<line class="st3" x1="120.04" y1="23.44" x2="120.04" y2="26.7"/>
<line class="st3" x1="152.59" y1="23.44" x2="152.59" y2="26.7"/>
<line class="st3" x1="185.14" y1="23.44" x2="185.14" y2="26.7"/>
<line class="st3" x1="217.69" y1="23.44" x2="217.69" y2="26.7"/>
<line class="st3" x1="250.24" y1="23.44" x2="250.24" y2="26.7"/>
<line class="st3" x1="282.79" y1="23.44" x2="282.79" y2="26.7"/>
<line class="st3" x1="315.34" y1="23.44" x2="315.34" y2="26.7"/>
<line class="st3" x1="347.89" y1="23.44" x2="347.89" y2="26.7"/>
<text transform="matrix(1 0 0 1 19.7627 141.7451)" class="st4 st5 st6">0</text>
<text transform="matrix(1 0 0 1 52.3125 141.7451)" class="st4 st5 st6">5</text>
<text transform="matrix(1 0 0 1 82.2378 141.7451)" class="st4 st5 st6">10</text>
<text transform="matrix(1 0 0 1 114.7881 141.7451)" class="st4 st5 st6">15</text>
<text transform="matrix(1 0 0 1 147.3379 141.7451)" class="st4 st5 st6">20</text>
<text transform="matrix(1 0 0 1 179.8877 141.7451)" class="st4 st5 st6">25</text>
<text transform="matrix(1 0 0 1 212.4375 141.7451)" class="st4 st5 st6">30</text>
<text transform="matrix(1 0 0 1 244.9883 141.7451)" class="st4 st5 st6">35</text>
<text transform="matrix(1 0 0 1 277.5381 141.7451)" class="st4 st5 st6">40</text>
<text transform="matrix(1 0 0 1 310.0879 141.7451)" class="st4 st5 st6">45</text>
<text transform="matrix(1 0 0 1 342.6377 141.7451)" class="st4 st5 st6">50</text>
<text transform="matrix(1 0 0 1 175.7627 154.9951)" class="st4 st5 st7">time</text>
<line class="st3" x1="22.39" y1="129.19" x2="22.39" y2="23.44"/>
<line class="st3" x1="347.89" y1="129.19" x2="347.89" y2="23.44"/>
<line class="st3" x1="22.39" y1="129.19" x2="25.64" y2="129.19"/>
<line class="st3" x1="22.39" y1="107.17" x2="25.64" y2="107.17"/>
<line class="st3" x1="22.39" y1="85.15" x2="25.64" y2="85.15"/>
<line class="st3" x1="22.39" y1="63.12" x2="25.64" y2="63.12"/>
<line class="st3" x1="22.39" y1="41.1" x2="25.64" y2="41.1"/>
<line class="st3" x1="347.89" y1="129.19" x2="344.63" y2="129.19"/>
<line class="st3" x1="347.89" y1="107.17" x2="344.63" y2="107.17"/>
<line class="st3" x1="347.89" y1="85.15" x2="344.63" y2="85.15"/>
<line class="st3" x1="347.89" y1="63.12" x2="344.63" y2="63.12"/>
<line class="st3" x1="347.89" y1="41.1" x2="344.63" y2="41.1"/>
<text transform="matrix(1 0 0 1 14.3379 132.9448)" class="st4 st5 st6">0</text>
<text transform="matrix(1 0 0 1 9.0879 110.9199)" class="st4 st5 st6">50</text>
<text transform="matrix(1 0 0 1 3.8379 88.8955)" class="st4 st5 st6">100</text>
<text transform="matrix(1 0 0 1 3.8379 66.8706)" class="st4 st5 st6">150</text>
<text transform="matrix(1 0 0 1 3.8379 44.8457)" class="st4 st5 st6">200</text>
<text transform="matrix(1 0 0 1 165.2627 19.3389)" class="st8 st7">Position</text>
<polyline class="st9" points="22.39,89.55 28.9,88.23 35.41,86.91 41.92,85.72 48.43,84.56 54.94,83.36 61.45,82.16 67.96,80.97 
	74.47,79.72 80.98,78.54 87.49,77.33 94,76.09 100.51,74.91 107.02,73.76 113.53,72.61 120.04,71.42 126.55,70.15 133.06,68.89 
	139.57,67.55 146.08,66.14 152.59,64.73 159.1,63.39 165.61,62.03 172.12,60.69 178.63,59.33 185.14,57.95 191.65,56.55 
	198.16,55.22 204.67,53.87 211.18,52.53 217.69,51.25 224.2,49.99 230.71,48.65 237.22,47.31 243.73,46.01 250.24,44.78 
	256.75,43.47 263.26,42.14 269.77,40.8 276.28,39.44 282.79,38.04 289.3,36.62 295.81,35.17 302.32,33.65 308.83,32.14 
	315.34,30.69 321.85,29.34 328.36,27.99 334.87,26.69 341.38,25.41 "/>
<polyline class="st10" points="22.39,85.15 28.9,87.22 35.41,85.74 41.92,84.39 48.43,84.29 54.94,83.51 61.45,81.92 67.96,81.16 
	74.47,79.7 80.98,78.93 87.49,77.64 94,76.84 100.51,75.02 107.02,73.75 113.53,72.52 120.04,71.23 126.55,70.18 133.06,69.1 
	139.57,67.68 146.08,66.12 152.59,65.26 159.1,63.43 165.61,62.36 172.12,61.04 178.63,59.66 185.14,58.24 191.65,56.94 
	198.16,55.71 204.67,54.6 211.18,53.35 217.69,51.45 224.2,50.07 230.71,48.54 237.22,47.48 243.73,45.99 250.24,44.49 
	256.75,43.32 263.26,42.14 269.77,40.8 276.28,39.65 282.79,38.05 289.3,36.68 295.81,35.6 302.32,34.37 308.83,32.42 315.34,30.86 
	321.85,29.49 328.36,27.61 334.87,26.24 341.38,24.88 "/>
<polyline class="st11" points="22.39,52.11 28.9,82.64 35.41,82.88 41.92,81.73 48.43,81.65 54.94,80.96 61.45,79.52 67.96,78.93 
	74.47,77.62 80.98,76.99 87.49,75.81 94,75.11 100.51,73.37 107.02,72.16 113.53,70.97 120.04,69.72 126.55,68.7 133.06,67.63 
	139.57,66.22 146.08,64.67 152.59,63.82 159.1,62 165.61,60.93 172.12,59.6 178.63,58.22 185.14,56.8 191.65,55.5 198.16,54.27 
	204.67,53.16 211.18,51.91 217.69,50.01 224.2,48.63 230.71,47.1 237.22,46.04 243.73,44.55 250.24,43.05 256.75,41.88 
	263.26,40.71 269.77,39.36 276.28,38.21 282.79,36.61 289.3,35.25 295.81,34.17 302.32,32.93 308.83,30.98 315.34,29.42 
	321.85,28.06 328.36,26.17 334.87,24.81 341.38,23.44 "/>
<polyline class="st11" points="22.39,118.18 28.9,91.8 35.41,88.6 41.92,87.04 48.43,86.92 54.94,86.05 61.45,84.32 67.96,83.4 
	74.47,81.78 80.98,80.88 87.49,79.46 94,78.56 100.51,76.68 107.02,75.34 113.53,74.06 120.04,72.74 126.55,71.66 133.06,70.56 
	139.57,69.13 146.08,67.56 152.59,66.7 159.1,64.87 165.61,63.8 172.12,62.48 178.63,61.09 185.14,59.68 191.65,58.37 198.16,57.15 
	204.67,56.03 211.18,54.78 217.69,52.88 224.2,51.51 230.71,49.98 237.22,48.91 243.73,47.42 250.24,45.93 256.75,44.76 
	263.26,43.58 269.77,42.23 276.28,41.08 282.79,39.49 289.3,38.12 295.81,37.04 302.32,35.81 308.83,33.85 315.34,32.29 
	321.85,30.93 328.36,29.04 334.87,27.68 341.38,26.32 "/>
<polygon class="st12" points="107.02,72.16 100.51,73.37 94,75.11 87.49,75.81 80.98,76.99 74.47,77.62 67.96,78.93 61.45,79.52 
	54.94,80.96 48.43,81.65 41.92,81.73 35.41,82.88 28.9,82.64 22.39,52.11 22.39,118.18 28.9,91.8 35.41,88.6 41.92,87.04 
	48.43,86.92 54.94,86.05 61.45,84.32 67.96,83.4 74.47,81.78 80.98,80.88 87.49,79.46 94,78.56 100.51,76.68 107.02,75.34 
	113.53,74.06 120.04,72.74 126.55,71.66 133.06,70.56 139.57,69.13 146.08,67.56 152.59,66.7 159.1,64.87 165.61,63.8 172.12,62.48 
	178.63,61.09 185.14,59.68 191.65,58.37 198.16,57.15 204.67,56.03 211.18,54.78 217.69,52.88 224.2,51.51 230.71,49.98 
	237.22,48.91 243.73,47.42 250.24,45.93 256.75,44.76 263.26,43.58 269.77,42.23 276.28,41.08 282.79,39.49 289.3,38.12 
	295.81,37.04 302.32,35.81 308.83,33.85 315.34,32.29 321.85,30.93 328.36,29.04 334.87,27.68 341.38,26.32 341.38,23.44 
	334.87,24.81 328.36,26.17 321.85,28.06 315.34,29.42 308.83,30.98 302.32,32.93 295.81,34.17 289.3,35.25 282.79,36.61 
	276.28,38.21 269.77,39.36 263.26,40.71 256.75,41.88 250.24,43.05 243.73,44.55 237.22,46.04 230.71,47.1 224.2,48.63 
	217.69,50.01 211.18,51.91 204.67,53.16 198.16,54.27 191.65,55.5 185.14,56.8 178.63,58.22 172.12,59.6 165.61,60.93 159.1,62 
	152.59,63.82 146.08,64.67 139.57,66.22 133.06,67.63 126.55,68.7 120.04,69.72 113.53,70.97 "/>
<rect x="252.64" y="83.44" class="st1" width="86.25" height="35.25"/>
<text transform="matrix(1 0 0 1 287.8877 93.1948)" class="st5 st13">Ground-truth</text>
<line class="st9" x1="255.64" y1="90.19" x2="285.64" y2="90.19"/>
<text transform="matrix(1 0 0 1 287.8877 104.0698)" class="st5 st13">Kalman Filter</text>
<line class="st10" x1="255.64" y1="101.07" x2="285.64" y2="101.07"/>
<text transform="matrix(1 0 0 1 287.8877 114.9448)" class="st5 st13">3</text>
<path d="M293.93,114.82c0.3,0,0.57-0.12,0.8-0.35c0.23-0.23,0.41-0.52,0.53-0.86c0.12-0.34,0.19-0.65,0.19-0.94
	c0-0.23-0.06-0.42-0.19-0.56c-0.13-0.14-0.31-0.21-0.54-0.21c-0.32,0-0.59,0.11-0.82,0.32c-0.23,0.21-0.39,0.48-0.5,0.81
	c-0.11,0.32-0.16,0.64-0.16,0.94c0,0.23,0.06,0.43,0.19,0.6C293.54,114.73,293.72,114.82,293.93,114.82z M293.93,115.04
	c-0.25,0-0.47-0.06-0.66-0.18s-0.33-0.28-0.44-0.47s-0.16-0.42-0.16-0.65c0-0.26,0.06-0.53,0.18-0.81s0.28-0.54,0.47-0.77
	s0.43-0.42,0.68-0.56s0.51-0.21,0.78-0.21h2.07c0.05,0,0.1,0.02,0.15,0.06c0.04,0.04,0.06,0.09,0.06,0.15
	c0,0.09-0.03,0.16-0.09,0.22s-0.13,0.09-0.21,0.09h-1.01c0.16,0.23,0.23,0.52,0.23,0.86c0,0.28-0.05,0.55-0.16,0.82
	s-0.25,0.51-0.45,0.73s-0.41,0.4-0.67,0.53C294.48,114.97,294.22,115.04,293.93,115.04z"/>
<rect x="255.64" y="108.01" class="st12" width="30" height="7.88"/>
<rect x="252.64" y="83.44" class="st14" width="86.25" height="35.25"/>
<rect x="22.39" y="172.69" class="st1" width="325.5" height="105.75"/>
<line class="st2" x1="22.39" y1="278.44" x2="22.39" y2="172.69"/>
<line class="st2" x1="54.94" y1="278.44" x2="54.94" y2="172.69"/>
<line class="st2" x1="87.49" y1="278.44" x2="87.49" y2="172.69"/>
<line class="st2" x1="120.04" y1="278.44" x2="120.04" y2="172.69"/>
<line class="st2" x1="152.59" y1="278.44" x2="152.59" y2="172.69"/>
<line class="st2" x1="185.14" y1="278.44" x2="185.14" y2="172.69"/>
<line class="st2" x1="217.69" y1="278.44" x2="217.69" y2="172.69"/>
<line class="st2" x1="250.24" y1="278.44" x2="250.24" y2="172.69"/>
<line class="st2" x1="282.79" y1="278.44" x2="282.79" y2="172.69"/>
<line class="st2" x1="315.34" y1="278.44" x2="315.34" y2="172.69"/>
<line class="st2" x1="347.89" y1="278.44" x2="347.89" y2="172.69"/>
<line class="st2" x1="347.89" y1="278.44" x2="22.39" y2="278.44"/>
<line class="st2" x1="347.89" y1="252.01" x2="22.39" y2="252.01"/>
<line class="st2" x1="347.89" y1="225.57" x2="22.39" y2="225.57"/>
<line class="st2" x1="347.89" y1="199.13" x2="22.39" y2="199.13"/>
<line class="st2" x1="347.89" y1="172.69" x2="22.39" y2="172.69"/>
<line class="st3" x1="22.39" y1="278.44" x2="347.89" y2="278.44"/>
<line class="st3" x1="22.39" y1="172.69" x2="347.89" y2="172.69"/>
<line class="st3" x1="22.39" y1="278.44" x2="22.39" y2="275.19"/>
<line class="st3" x1="54.94" y1="278.44" x2="54.94" y2="275.19"/>
<line class="st3" x1="87.49" y1="278.44" x2="87.49" y2="275.19"/>
<line class="st3" x1="120.04" y1="278.44" x2="120.04" y2="275.19"/>
<line class="st3" x1="152.59" y1="278.44" x2="152.59" y2="275.19"/>
<line class="st3" x1="185.14" y1="278.44" x2="185.14" y2="275.19"/>
<line class="st3" x1="217.69" y1="278.44" x2="217.69" y2="275.19"/>
<line class="st3" x1="250.24" y1="278.44" x2="250.24" y2="275.19"/>
<line class="st3" x1="282.79" y1="278.44" x2="282.79" y2="275.19"/>
<line class="st3" x1="315.34" y1="278.44" x2="315.34" y2="275.19"/>
<line class="st3" x1="347.89" y1="278.44" x2="347.89" y2="275.19"/>
<line class="st3" x1="22.39" y1="172.69" x2="22.39" y2="175.95"/>
<line class="st3" x1="54.94" y1="172.69" x2="54.94" y2="175.95"/>
<line class="st3" x1="87.49" y1="172.69" x2="87.49" y2="175.95"/>
<line class="st3" x1="120.04" y1="172.69" x2="120.04" y2="175.95"/>
<line class="st3" x1="152.59" y1="172.69" x2="152.59" y2="175.95"/>
<line class="st3" x1="185.14" y1="172.69" x2="185.14" y2="175.95"/>
<line class="st3" x1="217.69" y1="172.69" x2="217.69" y2="175.95"/>
<line class="st3" x1="250.24" y1="172.69" x2="250.24" y2="175.95"/>
<line class="st3" x1="282.79" y1="172.69" x2="282.79" y2="175.95"/>
<line class="st3" x1="315.34" y1="172.69" x2="315.34" y2="175.95"/>
<line class="st3" x1="347.89" y1="172.69" x2="347.89" y2="175.95"/>
<text transform="matrix(1 0 0 1 19.7627 290.9951)" class="st4 st5 st6">0</text>
<text transform="matrix(1 0 0 1 52.3125 290.9951)" class="st4 st5 st6">5</text>
<text transform="matrix(1 0 0 1 82.2378 290.9951)" class="st4 st5 st6">10</text>
<text transform="matrix(1 0 0 1 114.7881 290.9951)" class="st4 st5 st6">15</text>
<text transform="matrix(1 0 0 1 147.3379 290.9951)" class="st4 st5 st6">20</text>
<text transform="matrix(1 0 0 1 179.8877 290.9951)" class="st4 st5 st6">25</text>
<text transform="matrix(1 0 0 1 212.4375 290.9951)" class="st4 st5 st6">30</text>
<text transform="matrix(1 0 0 1 244.9883 290.9951)" class="st4 st5 st6">35</text>
<text transform="matrix(1 0 0 1 277.5381 290.9951)" class="st4 st5 st6">40</text>
<text transform="matrix(1 0 0 1 310.0879 290.9951)" class="st4 st5 st6">45</text>
<text transform="matrix(1 0 0 1 342.6377 290.9951)" class="st4 st5 st6">50</text>
<text transform="matrix(1 0 0 1 175.7627 304.2451)" class="st4 st5 st7">time</text>
<line class="st3" x1="22.39" y1="278.44" x2="22.39" y2="172.69"/>
<line class="st3" x1="347.89" y1="278.44" x2="347.89" y2="172.69"/>
<line class="st3" x1="22.39" y1="278.44" x2="25.64" y2="278.44"/>
<line class="st3" x1="22.39" y1="252.01" x2="25.64" y2="252.01"/>
<line class="st3" x1="22.39" y1="225.57" x2="25.64" y2="225.57"/>
<line class="st3" x1="22.39" y1="199.13" x2="25.64" y2="199.13"/>
<line class="st3" x1="22.39" y1="172.69" x2="25.64" y2="172.69"/>
<line class="st3" x1="347.89" y1="278.44" x2="344.63" y2="278.44"/>
<line class="st3" x1="347.89" y1="252.01" x2="344.63" y2="252.01"/>
<line class="st3" x1="347.89" y1="225.57" x2="344.63" y2="225.57"/>
<line class="st3" x1="347.89" y1="199.13" x2="344.63" y2="199.13"/>
<line class="st3" x1="347.89" y1="172.69" x2="344.63" y2="172.69"/>
<text transform="matrix(1 0 0 1 14.3379 282.1953)" class="st4 st5 st6">0</text>
<text transform="matrix(1 0 0 1 14.3379 255.7578)" class="st4 st5 st6">2</text>
<text transform="matrix(1 0 0 1 14.3379 229.3203)" class="st4 st5 st6">4</text>
<text transform="matrix(1 0 0 1 14.3379 202.8828)" class="st4 st5 st6">6</text>
<text transform="matrix(1 0 0 1 14.3379 176.4453)" class="st4 st5 st6">8</text>
<text transform="matrix(1 0 0 1 166.0127 168.5889)" class="st8 st7">Velocity</text>
<polyline class="st9" points="22.39,238.79 28.9,238.72 35.41,242.86 41.92,243.71 48.43,242.48 54.94,242.38 61.45,242.77 
	67.96,240.81 74.47,243.11 80.98,242.06 87.49,241.36 94,243.11 100.51,243.84 107.02,243.74 113.53,242.8 120.04,240.36 
	126.55,240.63 133.06,238.3 139.57,236.1 146.08,236.07 152.59,238.36 159.1,237.63 165.61,238.21 172.12,237.75 178.63,236.98 
	185.14,236.21 191.65,238.6 198.16,238.11 204.67,238.11 211.18,240.17 217.69,240.42 224.2,238.23 230.71,238.38 237.22,239.35 
	243.73,241.46 250.24,239.16 256.75,238.65 263.26,238.2 269.77,237.5 276.28,236.59 282.79,235.74 289.3,234.87 295.81,233.04 
	302.32,233.22 308.83,234.78 315.34,238.08 321.85,237.68 328.36,239.5 334.87,240.08 341.38,238.85 "/>
<polyline class="st10" points="22.39,212.35 28.9,217.29 35.41,221.23 41.92,226.81 48.43,242.71 54.94,246.26 61.45,242.38 
	67.96,245.35 74.47,243.17 80.98,245.46 87.49,244.43 94,246.08 100.51,242.55 107.02,242.17 113.53,242.06 120.04,241.73 
	126.55,242.53 133.06,243.05 139.57,241.94 146.08,240.33 152.59,242.28 159.1,239.34 165.61,240.44 172.12,240.17 178.63,239.67 
	185.14,239.07 191.65,239.12 198.16,239.51 204.67,240.38 211.18,240.47 217.69,237.48 224.2,237.42 230.71,236.66 237.22,238.21 
	243.73,237.5 250.24,236.88 256.75,237.89 263.26,238.72 269.77,238.61 276.28,239.44 282.79,238.04 289.3,237.94 295.81,239.22 
	302.32,239.57 308.83,236.47 315.34,235.71 321.85,235.98 328.36,233.78 334.87,234.36 341.38,234.86 "/>
<polyline class="st11" points="22.39,172.69 28.9,178.56 35.41,187.71 41.92,201.96 48.43,225.88 54.94,234.99 61.45,234.54 
	67.96,239.59 74.47,238.66 80.98,241.73 87.49,241.17 94,243.12 100.51,239.78 107.02,239.51 113.53,239.46 120.04,239.17 
	126.55,239.98 133.06,240.52 139.57,239.4 146.08,237.8 152.59,239.75 159.1,236.81 165.61,237.91 172.12,237.64 178.63,237.14 
	185.14,236.54 191.65,236.59 198.16,236.99 204.67,237.85 211.18,237.94 217.69,234.96 224.2,234.89 230.71,234.13 237.22,235.68 
	243.73,234.97 250.24,234.36 256.75,235.37 263.26,236.19 269.77,236.09 276.28,236.92 282.79,235.52 289.3,235.42 295.81,236.69 
	302.32,237.04 308.83,233.94 315.34,233.19 321.85,233.46 328.36,231.25 334.87,231.83 341.38,232.33 "/>
<polyline class="st11" points="22.39,252.01 28.9,256.02 35.41,254.75 41.92,251.65 48.43,259.53 54.94,257.54 61.45,250.21 
	67.96,251.12 74.47,247.68 80.98,249.19 87.49,247.68 94,249.04 100.51,245.33 107.02,244.84 113.53,244.66 120.04,244.29 
	126.55,245.07 133.06,245.59 139.57,244.47 146.08,242.86 152.59,244.81 159.1,241.88 165.61,242.97 172.12,242.7 178.63,242.2 
	185.14,241.6 191.65,241.65 198.16,242.04 204.67,242.9 211.18,243 217.69,240.01 224.2,239.94 230.71,239.18 237.22,240.73 
	243.73,240.02 250.24,239.4 256.75,240.42 263.26,241.24 269.77,241.14 276.28,241.97 282.79,240.57 289.3,240.47 295.81,241.74 
	302.32,242.09 308.83,238.99 315.34,238.24 321.85,238.51 328.36,236.3 334.87,236.88 341.38,237.38 "/>
<polygon class="st12" points="61.45,234.54 54.94,234.99 48.43,225.88 41.92,201.96 35.41,187.71 28.9,178.56 22.39,172.69 
	22.39,252.01 28.9,256.02 35.41,254.75 41.92,251.65 48.43,259.53 54.94,257.54 61.45,250.21 67.96,251.12 74.47,247.68 
	80.98,249.19 87.49,247.68 94,249.04 100.51,245.33 107.02,244.84 113.53,244.66 120.04,244.29 126.55,245.07 133.06,245.59 
	139.57,244.47 146.08,242.86 152.59,244.81 159.1,241.88 165.61,242.97 172.12,242.7 178.63,242.2 185.14,241.6 191.65,241.65 
	198.16,242.04 204.67,242.9 211.18,243 217.69,240.01 224.2,239.94 230.71,239.18 237.22,240.73 243.73,240.02 250.24,239.4 
	256.75,240.42 263.26,241.24 269.77,241.14 276.28,241.97 282.79,240.57 289.3,240.47 295.81,241.74 302.32,242.09 308.83,238.99 
	315.34,238.24 321.85,238.51 328.36,236.3 334.87,236.88 341.38,237.38 341.38,232.33 334.87,231.83 328.36,231.25 321.85,233.46 
	315.34,233.19 308.83,233.94 302.32,237.04 295.81,236.69 289.3,235.42 282.79,235.52 276.28,236.92 269.77,236.09 263.26,236.19 
	256.75,235.37 250.24,234.36 243.73,234.97 237.22,235.68 230.71,234.13 224.2,234.89 217.69,234.96 211.18,237.94 204.67,237.85 
	198.16,236.99 191.65,236.59 185.14,236.54 178.63,237.14 172.12,237.64 165.61,237.91 159.1,236.81 152.59,239.75 146.08,237.8 
	139.57,239.4 133.06,240.52 126.55,239.98 120.04,239.17 113.53,239.46 107.02,239.51 100.51,239.78 94,243.12 87.49,241.17 
	80.98,241.73 74.47,238.66 67.96,239.59 "/>
<rect x="253.39" y="178.69" class="st1" width="86.25" height="35.25"/>
<text transform="matrix(1 0 0 1 288.6377 188.4453)" class="st5 st13">Ground-truth</text>
<line class="st9" x1="256.39" y1="185.44" x2="286.39" y2="185.44"/>
<text transform="matrix(1 0 0 1 288.6377 199.3203)" class="st5 st13">Kalman Filter</text>
<line class="st10" x1="256.39" y1="196.32" x2="286.39" y2="196.32"/>
<text transform="matrix(1 0 0 1 288.6377 210.1953)" class="st5 st13">3</text>
<path d="M294.68,210.07c0.3,0,0.57-0.12,0.8-0.35c0.23-0.23,0.41-0.52,0.53-0.86c0.12-0.34,0.19-0.65,0.19-0.94
	c0-0.23-0.06-0.42-0.19-0.56c-0.13-0.14-0.31-0.21-0.54-0.21c-0.32,0-0.59,0.11-0.82,0.32c-0.23,0.21-0.39,0.48-0.5,0.81
	c-0.11,0.32-0.16,0.64-0.16,0.94c0,0.23,0.06,0.43,0.19,0.6C294.29,209.98,294.47,210.07,294.68,210.07z M294.68,210.29
	c-0.25,0-0.47-0.06-0.66-0.18s-0.33-0.28-0.44-0.47s-0.16-0.42-0.16-0.65c0-0.26,0.06-0.53,0.18-0.81s0.28-0.54,0.47-0.77
	s0.43-0.42,0.68-0.56s0.51-0.21,0.78-0.21h2.07c0.05,0,0.1,0.02,0.15,0.06c0.04,0.04,0.06,0.09,0.06,0.15
	c0,0.09-0.03,0.16-0.09,0.22s-0.13,0.09-0.21,0.09h-1.01c0.16,0.23,0.23,0.52,0.23,0.86c0,0.28-0.05,0.55-0.16,0.82
	s-0.25,0.51-0.45,0.73s-0.41,0.4-0.67,0.53C295.23,210.22,294.97,210.29,294.68,210.29z"/>
<rect x="256.39" y="203.26" class="st12" width="30" height="7.88"/>
<rect x="253.39" y="178.69" class="st14" width="86.25" height="35.25"/>
</svg>
