<?xml version="1.0" encoding="utf-8"?>
<!-- Generator: Adobe Illustrator 18.0.0, SVG Export Plug-In . SVG Version: 6.00 Build 0)  -->
<!DOCTYPE svg PUBLIC "-//W3C//DTD SVG 1.1//EN" "http://www.w3.org/Graphics/SVG/1.1/DTD/svg11.dtd">
<svg version="1.1" id="Layer_1" focusable="false" xmlns="http://www.w3.org/2000/svg" xmlns:xlink="http://www.w3.org/1999/xlink"
	 x="0px" y="0px" viewBox="0 0 612 792" enable-background="new 0 0 612 792" xml:space="preserve">
<path d="M358.2,546.8c-9,4.1-45.4,8.2-68.3-19.4c-12.6-14.5-34.6-45.5-57.6-86.9c-12.2,0-20.1,0-29.2-0.8v63.4
	c0,32.1,8.2,29,35.2,32.6v11.1c-9.4-0.4-31.6-1.1-48.6-1.1c-17.9,0-35.7,0.8-45.9,1.1v-11.1c21.2-4,30.1-1.8,30.1-32.6V353.7
	c0-30.9-8.7-28.7-30.1-32.6v-11.1c35.2,1.4,72.5-0.8,96.9-0.8c43.3,0,76.4,19.7,76.4,62.3c0,28.8-22.8,57.6-53.5,64.9
	c18.6,33.1,41,62.3,57.6,80.5c9.8,10.7,23.5,20.1,37.2,20.1L358.2,546.8L358.2,546.8z"/>
<path d="M389.5,362.4c-31.8,0-44-21.4-44-44v-44c0-16.7,12-41.5,46.4-41.5s41.5,24.5,41.5,24.5l-14.6,9.8c0,0-7.5-17.1-26.9-17.1
	c-10.8,0-26.9,10-26.9,26.9v36.6c0,18.3,9,31.8,24.5,31.8c19.3,0,29.4-14.9,29.4-36.6h-24.5v-14.6h41.5
	C435.9,322.2,442.3,362.4,389.5,362.4L389.5,362.4z"/>
<path d="M230.3,423.5c-12.8,0-18.6-0.4-27.3-1.1v-95.2c8.7-0.8,20.5-0.8,30.7-0.8c31.8,0,50.8,16.7,50.8,47.1
	C284.6,403.4,264.1,423.5,230.3,423.5z"/>
</svg>
